<?xml version="1.0" standalone="no"?>
<!DOCTYPE svg PUBLIC "-//W3C//DTD SVG 20010904//EN"
 "http://www.w3.org/TR/2001/REC-SVG-20010904/DTD/svg10.dtd">
<svg version="1.0" xmlns="http://www.w3.org/2000/svg"
 width="860.000000pt" height="539.000000pt" viewBox="0 0 860.000000 539.000000"
 preserveAspectRatio="xMidYMid meet">

<g transform="translate(0.000000,539.000000) scale(0.100000,-0.100000)"
fill="#000000" stroke="none">
<path d="M3474 3973 c7 -16 100 -245 206 -511 178 -448 191 -484 178 -505 -8
-12 -25 -49 -38 -82 -34 -87 -34 -253 0 -340 82 -211 272 -345 490 -345 322 0
571 301 507 612 -21 104 -61 181 -134 259 -101 107 -222 159 -369 160 l-81 0
-325 332 c-179 183 -348 358 -378 390 -57 62 -79 73 -56 30z m903 -1018 c70
-21 123 -63 158 -126 26 -46 30 -64 29 -124 -2 -271 -359 -353 -486 -112 -34
65 -32 176 4 238 42 71 92 108 173 129 46 12 67 11 122 -5z"/>
<path d="M2466 3774 c-5 -13 -4 -14 7 -6 10 9 17 8 27 -1 12 -10 12 -9 1 6
-17 21 -27 22 -35 1z"/>
<path d="M5832 3605 c-172 -100 -315 -185 -318 -188 -3 -3 15 -45 39 -93 58
-115 112 -275 134 -394 25 -141 23 -384 -6 -518 -22 -105 -73 -257 -110 -329
l-20 -41 312 -186 c172 -102 317 -187 322 -189 17 -4 101 181 153 338 154 463
149 939 -14 1410 -34 97 -140 324 -166 356 -12 14 -49 -5 -326 -166z"/>
<path d="M2830 3556 c0 -2 7 -7 16 -10 8 -3 12 -2 9 4 -6 10 -25 14 -25 6z"/>
<path d="M2306 3434 c-4 -14 -5 -28 -3 -31 3 -2 8 8 11 23 4 14 5 28 3 31 -3
2 -8 -8 -11 -23z"/>
<path d="M3070 3400 c0 -5 5 -10 11 -10 5 0 7 5 4 10 -3 6 -8 10 -11 10 -2 0
-4 -4 -4 -10z"/>
<path d="M2225 3160 c-4 -17 -5 -34 -2 -36 3 -3 8 9 12 26 4 17 5 34 2 36 -3
3 -8 -9 -12 -26z"/>
<path d="M2212 3090 c0 -14 2 -19 5 -12 2 6 2 18 0 25 -3 6 -5 1 -5 -13z"/>
<path d="M2196 2994 c-4 -20 -5 -38 -3 -40 3 -3 8 11 11 32 4 20 5 38 3 40 -3
3 -8 -11 -11 -32z"/>
<path d="M2174 2690 c0 -58 1 -81 3 -52 2 28 2 76 0 105 -2 28 -3 5 -3 -53z"/>
<path d="M2903 2700 c0 -30 2 -43 4 -27 2 15 2 39 0 55 -2 15 -4 2 -4 -28z"/>
<path d="M2183 2515 c0 -33 2 -45 4 -27 2 18 2 45 0 60 -2 15 -4 0 -4 -33z"/>
<path d="M2192 2405 c0 -16 2 -22 5 -12 2 9 2 23 0 30 -3 6 -5 -1 -5 -18z"/>
<path d="M2202 2335 c0 -11 3 -29 8 -40 11 -25 11 1 0 35 -6 20 -8 21 -8 5z"/>
<path d="M2221 2229 c6 -24 13 -46 15 -49 9 -8 -8 74 -16 84 -5 4 -4 -11 1
-35z"/>
<path d="M2240 2141 c0 -5 5 -13 10 -16 6 -3 10 -2 10 4 0 5 -4 13 -10 16 -5
3 -10 2 -10 -4z"/>
<path d="M2262 2080 c0 -8 4 -26 8 -40 6 -20 8 -21 8 -5 0 11 -3 29 -8 40 -5
12 -8 14 -8 5z"/>
<path d="M3367 1968 c172 -224 424 -382 700 -437 138 -29 337 -29 475 -1 278
57 530 214 701 438 l48 62 -986 0 -986 0 48 -62z m623 -23 c34 -18 50 -43 50
-80 0 -44 -26 -79 -87 -121 l-58 -39 73 -3 72 -3 0 -30 0 -30 -112 3 c-92 2
-113 6 -116 19 -5 25 39 80 101 127 59 45 73 77 42 102 -20 17 -62 5 -70 -20
-4 -14 -15 -20 -36 -20 -24 0 -29 4 -29 24 0 13 13 38 29 55 23 25 37 31 71
31 22 0 54 -7 70 -15z m268 -1 c36 -25 52 -68 52 -139 0 -108 -37 -165 -107
-165 -72 0 -111 43 -120 133 -11 108 38 187 116 187 20 0 47 -7 59 -16z m271
2 c29 -15 51 -53 51 -87 0 -35 -29 -73 -88 -114 l-57 -40 70 -5 c67 -5 70 -6
70 -30 l0 -25 -112 -3 c-109 -3 -113 -2 -113 18 0 39 29 78 90 121 63 44 82
78 59 105 -18 22 -62 14 -74 -13 -7 -16 -18 -23 -37 -23 -23 0 -28 4 -28 26 0
15 12 38 29 55 34 33 92 39 140 15z m281 -11 c24 -22 40 -75 40 -135 0 -102
-31 -149 -102 -157 -82 -8 -128 48 -128 157 0 109 46 165 128 157 24 -3 52
-13 62 -22z"/>
<path d="M4169 1884 c-18 -22 -18 -146 0 -167 17 -21 35 -21 55 -1 19 18 22
133 6 165 -13 23 -43 25 -61 3z"/>
<path d="M4706 1884 c-22 -21 -22 -131 0 -162 18 -27 36 -28 57 -4 25 27 24
143 -1 165 -23 21 -36 21 -56 1z"/>
<path d="M2975 2000 c-3 -6 1 -7 9 -4 18 7 21 14 7 14 -6 0 -13 -4 -16 -10z"/>
<path d="M2306 1937 c3 -10 9 -15 12 -12 3 3 0 11 -7 18 -10 9 -11 8 -5 -6z"/>
<path d="M2710 1849 c-17 -13 -18 -17 -5 -10 33 17 51 31 40 31 -5 0 -21 -10
-35 -21z"/>
<path d="M2655 1820 c-3 -6 1 -7 9 -4 18 7 21 14 7 14 -6 0 -13 -4 -16 -10z"/>
<path d="M2600 1790 c-19 -11 -31 -19 -27 -20 11 0 67 29 67 35 0 7 -1 7 -40
-15z"/>
<path d="M2410 1701 c0 -6 4 -13 10 -16 6 -3 7 1 4 9 -7 18 -14 21 -14 7z"/>
</g>
</svg>
